PathFileType	4	(X/Y/Z)	Patient4_TMGait_0pt7_02_left_47.trc.trc
DataRate	CameraRate	NumFrames	NumMarkers	Units	OrigDataRate	OrigDataStartFrame	OrigNumFrames
89.171974522293	89.171974522293	4	33	mm	89.171974522293	53	       141
Frame#	Time	Sacral			L.Shoulder			Chest			R.Shoulder			Neck			R.ASIS			L.ASIS			R.Thigh.Superior			R.Thigh.Lateral			R.Thigh.Inferior			R.Patella			L.Thigh.Superior			L.Thigh.Lateral			L.Thigh.Inferior			L.Patella			L.Shank.Superior			L.Shank.Lateral			L.Shank.Inferior			R.Shank.Superior			R.Shank.Lateral			R.Shank.Inferior			R.Heel			R.Midfoot.Superior			R.Midfoot.Lateral			R.Toe			L.Heel			L.Midfoot.Lateral			L.Midfoot.Superior			L.Toe			L.Elbow			L.Wrist			R.Elbow			R.Wrist			
		X1	Y1	Z1	X2	Y2	Z2	X3	Y3	Z3	X4	Y4	Z4	X5	Y5	Z5	X6	Y6	Z6	X7	Y7	Z7	X8	Y8	Z8	X9	Y9	Z9	X10	Y10	Z10	X11	Y11	Z11	X12	Y12	Z12	X13	Y13	Z13	X14	Y14	Z14	X15	Y15	Z15	X16	Y16	Z16	X17	Y17	Z17	X18	Y18	Z18	X19	Y19	Z19	X20	Y20	Z20	X21	Y21	Z21	X22	Y22	Z22	X23	Y23	Z23	X24	Y24	Z24	X25	Y25	Z25	X26	Y26	Z26	X27	Y27	Z27	X28	Y28	Z28	X29	Y29	Z29	X30	Y30	Z30	X31	Y31	Z31	X32	Y32	Z32	X33	Y33	Z33	

53	54.363142857143	740.630086778804	1010.244746061185	447.789095240235	945.495738256760	1431.337187146410	264.658204455323	1041.193516574627	1360.907049206354	430.899860776351	953.651143798299	1445.268569303490	598.405531588430	943.566061161599	1493.418666913432	417.715223743617	961.384191049208	947.771388946642	573.509940646852	962.338639026245	959.787280640438	300.163575542780	1056.781964436640	790.071438993428	541.837971063033	1029.813575046185	668.580894287853	617.495325483683	1121.854849319979	636.227444782577	536.900452173061	1149.739595370028	521.074368889781	560.502283279602	1015.379586035316	755.041398103720	333.472129020639	932.752455323398	637.937779985177	269.858184848183	1015.410006116394	561.812081322279	338.098445710528	1017.105031683183	490.999611801799	347.024800119886	988.160406354010	418.572214020694	335.826878102975	899.022395034733	306.278116679186	280.264670998263	946.062047042849	193.279603670687	351.030892390544	1069.900151298897	446.101747335641	569.540281692112	945.350588061836	414.133003810398	628.630201665130	926.691991960010	304.839488846889	582.545955141831	725.794409828675	259.024408789921	551.459120985687	885.553717001444	182.476160799603	598.807309809932	775.341423503093	193.331288183367	626.469444807557	935.510563877828	62.854971159187	625.422578920053	814.123283217589	38.394353453227	386.032875483924	890.509195024138	35.685456252594	307.343696181853	972.560388530333	96.356532499584	337.407888877762	1102.129359921414	43.674205877537	311.773818625525	902.183472790429	1082.237735510135	147.994800497523	1028.837924749837	852.416942458630	159.925497421675	959.408049417223	1099.413045953042	719.816436037755	1191.134337416786	1027.729815163776	638.292357155235	
54	54.374357142857	739.622270976359	1010.182728764350	446.573708812777	946.132934814152	1431.793022346005	265.041433367232	1040.343620890256	1361.139973946486	432.082128101609	951.169343011095	1445.081356526074	599.000647298493	942.939362459671	1493.624852163992	418.183166157701	959.854456322130	948.430522007766	573.728170280133	962.507433517635	960.351084246898	300.306108142503	1057.664849352287	794.054837359304	541.704067409012	1033.215566491108	672.193850932876	617.753896565606	1125.806644203505	641.515248291155	537.120939184175	1156.280214853923	527.335797837179	560.909479100235	1013.480596750885	754.150329402033	333.820726201526	929.912676987650	637.795777390582	269.693940061738	1011.298149480045	560.844783908608	338.368745960555	1012.149296454037	490.061139229875	347.425534879803	982.876635903120	417.836987242418	336.049847339831	893.163048955855	306.125403366719	280.285289281969	939.029445691634	192.844077474255	351.240903260019	1079.058886248243	450.159587726318	570.288038159549	956.024897844547	413.691554846825	629.911584073514	941.258855554369	303.668251832406	583.961575282507	741.894893176847	249.843949320443	553.808257412742	905.086614320787	180.249440734898	600.803930223461	794.464313636974	186.440469464472	628.761466101545	960.030387297613	62.789926283226	627.235565333102	806.189821054151	38.358798521936	386.019071408400	882.630365352706	35.663433123299	307.345482029771	964.711079739503	96.309048222027	337.505348990763	1094.282608918960	43.521273721006	311.799949635559	908.672902587484	1082.926478413332	145.636129070874	1049.212915534434	861.405647961630	156.890843130564	948.952200525613	1098.526639504941	719.774602336367	1177.254140025415	1004.856537667698	645.859535949854	
55	54.385571428571	738.674414544873	1010.103045668454	445.430881809756	946.803551995496	1432.193473080155	265.534977691241	1039.550666610700	1361.300132544045	433.317938882709	948.811785129505	1444.828744625470	599.651104010865	942.354382614878	1493.782482357278	418.754206211572	958.359904447035	948.959855195367	574.062789547769	962.914106504298	960.929857900313	300.475405810886	1058.286298310703	797.630871931197	541.900069326652	1035.893376995784	675.397981424129	618.183940737134	1129.056245061891	646.245296511767	537.658339817948	1161.880769735259	533.236346704884	561.638178839574	1011.564044945580	753.219473326431	334.298704445376	927.069639976285	637.650880937143	269.557039396478	1007.109278425260	559.844670572090	338.686211504327	1007.101455699281	489.103067699763	347.839263907611	977.525448155872	417.083960059625	336.282190157210	887.265132294186	305.947022006524	280.303348522576	931.933659992248	192.401272264398	351.457857614086	1087.598701957711	453.854767411049	571.294660641251	966.395411426030	412.433253305648	631.358384397849	956.069401032112	301.790528284792	585.558228486064	758.880757350897	239.206394447054	556.128802806656	925.368169762506	177.342025276051	602.974382156046	814.511634528800	178.507931168891	631.137760216072	985.617219743871	62.497790531464	629.480226776915	798.255148024295	38.318654774395	386.005114951452	874.746946044530	35.634226692923	307.345990606006	956.853578489421	96.258782312942	337.601068295081	1086.431552305174	43.379122772365	311.828783981255	915.136717419697	1083.725737210354	143.446625232394	1069.088176708291	871.459117396835	154.325679984794	939.323336945478	1097.823041658378	720.008511015164	1161.761854015044	982.836018040823	653.641603091445	
56	54.396785714286	737.798177886163	1010.017835631142	444.379538103084	947.504799701933	1432.552757898404	266.145349803238	1038.830905597056	1361.390747320437	434.598063446132	946.617974468852	1444.515896993490	600.357472253084	941.828673615985	1493.898931904973	419.437276216382	956.924284045343	949.369359384353	574.513334201476	963.558368437645	961.526083386341	300.659624023306	1058.633546178958	800.738830115688	542.390031032709	1037.825717203152	678.119781668864	618.769014816671	1131.568305439659	650.323720152394	538.491518540219	1166.507838409841	538.677807113091	562.668780964325	1009.626593609211	752.259603574231	334.917707670142	924.209874612051	637.509073103860	269.455192194912	1002.826176741441	558.815786156084	339.048002144251	1001.943436903661	488.134534842813	348.262902598948	972.091071898409	416.323260356187	336.522727600137	881.315629779961	305.750098312024	280.318073348414	924.776884341552	191.959803856491	351.679140372968	1095.453110060177	457.142980819398	572.540901386727	976.452696972622	410.384407502506	632.959957609398	971.072499960229	299.300108548684	587.314158930078	776.798852180128	227.316710982760	558.416446275497	946.315184142364	173.918395397245	605.264164047850	835.477106073075	169.723307806473	633.556470185897	1012.110289178495	62.208691860584	632.053798492866	790.322453845052	38.278304178859	385.988969177836	866.858578975183	35.600693737790	307.344688061119	948.988449422337	96.206543697394	337.694356661871	1078.574172107564	43.247716986845	311.859768012081	921.572875793304	1084.646611855708	141.446771856440	1088.346343941338	882.538951520562	152.257913124071	930.510436090558	1097.261989507889	720.557435971362	1144.647336162230	961.850559092810	661.638857939415	
